<svg xmlns="http://www.w3.org/2000/svg" preserveAspectRatio="xMidYMid meet" viewBox="-10.01 -10.01 46.019997 47.019997"><path fill-rule="evenodd" d="M -10.0 -10.0 L 36.0 -10.0 L 36.0 37.0 L -10.0 37.0 L -10.0 19.0 L -10.0 -10.0 Z " fill="orange" stroke="black" stroke-width="0.01"/><path fill-rule="evenodd" d="M 0.0 0.0 L 26.0 0.0 L 26.0 27.0 L 0.0 27.0 L 0.0 22.0 L 21.0 22.0 L 21.0 5.0 L 5.0 5.0 L 5.0 11.0 L 10.0 11.0 L 10.0 6.0 L 15.0 6.0 L 15.0 11.0 L 20.0 11.0 L 20.0 16.0 L 15.0 16.0 L 15.0 21.0 L 10.0 21.0 L 10.0 16.0 L 0.0 16.0 L 0.0 0.0 Z " fill="red" stroke="black" stroke-width="0.01"/><path fill-rule="evenodd" d="M 7.0 5.3 L 8.0 5.3 L 9.9 9.0 L 5.2 9.0 L 7.0 5.3 Z " fill="red" stroke="black" stroke-width="0.01"/></svg>