<svg xmlns="http://www.w3.org/2000/svg" preserveAspectRatio="xMidYMid meet" viewBox="-3.01 -3.01 32.02 33.02"><path fill-rule="evenodd" d="M 26.452 -2.853 L 26.927 -2.853 L 27.311 -2.574 L 27.763 -2.427 L 28.042 -2.041 L 28.427 -1.763 L 28.574 -1.311 L 28.853 -0.927 L 28.853 -0.452 L 29.0 0.0 L 29.0 27.0 L 28.853 27.452 L 28.853 27.927 L 28.574 28.311 L 28.427 28.763 L 28.042 29.042 L 27.763 29.427 L 27.311 29.574 L 26.927 29.853 L 26.452 29.853 L 26.0 30.0 L 0.0 30.0 L -0.452 29.853 L -0.927 29.853 L -1.311 29.574 L -1.763 29.427 L -2.041 29.042 L -2.427 28.763 L -2.574 28.311 L -2.853 27.927 L -2.853 27.452 L -3.0 27.0 L -3.0 22.0 L -2.853 21.547 L -2.853 21.072 L -2.574 20.688 L -2.427 20.236 L -2.041 19.957 L -1.763 19.572 L -1.312 19.426 L -0.927 19.146 L -0.45 19.146 L 0.0 19.0 L -0.452 18.853 L -0.927 18.853 L -1.311 18.574 L -1.763 18.427 L -2.041 18.042 L -2.427 17.763 L -2.574 17.311 L -2.853 16.927 L -2.853 16.452 L -3.0 16.0 L -3.0 0.0 L -2.853 -0.452 L -2.853 -0.927 L -2.574 -1.311 L -2.427 -1.763 L -2.041 -2.041 L -1.763 -2.427 L -1.311 -2.574 L -0.927 -2.853 L -0.452 -2.853 L 0.0 -3.0 L 26.0 -3.0 L 26.452 -2.853 Z " fill="red" stroke="black" stroke-width="0.01"/><path fill-rule="evenodd" d="M 0.0 0.0 L 26.0 0.0 L 26.0 27.0 L 0.0 27.0 L 0.0 22.0 L 21.0 22.0 L 21.0 5.0 L 5.0 5.0 L 5.0 11.0 L 10.0 11.0 L 10.0 6.0 L 15.0 6.0 L 15.0 11.0 L 20.0 11.0 L 20.0 16.0 L 15.0 16.0 L 15.0 21.0 L 10.0 21.0 L 10.0 16.0 L 0.0 16.0 L 0.0 0.0 Z " fill="orange" stroke="black" stroke-width="0.01"/><path fill-rule="evenodd" d="M 7.0 5.3 L 8.0 5.3 L 9.9 9.0 L 5.2 9.0 L 7.0 5.3 Z " fill="orange" stroke="black" stroke-width="0.01"/></svg>