<svg xmlns="http://www.w3.org/2000/svg" preserveAspectRatio="xMidYMid meet" viewBox="194439.5 549439.56 2045.9531 1151.375"><path fill-rule="evenodd" d="M 195286.071 549830.555 L 195286.569 549830.778 L 195287.112 549830.787 L 195287.891 549831.371 L 195288.778 549831.769 L 195289.048 549832.239 L 195289.485 549832.567 L 195289.772 549833.499 L 195290.255 549834.341 L 195290.197 549834.882 L 195290.357 549835.403 L 195290.234 549843.271 L 195291.961 549843.758 L 195293.044 549844.482 L 195294.175 549845.112 L 195294.319 549845.267 L 195297.435 549845.714 L 195300.324 549839.863 L 195300.588 549839.592 L 195300.699 549839.231 L 195301.603 549838.551 L 195302.395 549837.739 L 195302.768 549837.675 L 195303.07 549837.448 L 195304.2 549837.43 L 195305.319 549837.238 L 195305.659 549837.406 L 195306.036 549837.4 L 195312.226 549839.3 L 195313.419 549840.137 L 195314.64 549840.985 L 195314.644 549840.997 L 195314.654 549841.004 L 195315.136 549842.409 L 195315.616 549843.786 L 195315.613 549843.797 L 195315.617 549843.81 L 195315.174 549845.251 L 195314.76 549846.626 L 195314.436 549847.093 L 195315.212 549847.316 L 195315.207 549846.342 L 195315.209 549846.336 L 195315.207 549846.331 L 195315.68 549844.863 L 195316.11 549843.516 L 195316.115 549843.512 L 195316.117 549843.507 L 195317.402 549842.568 L 195318.502 549841.761 L 195318.507 549841.761 L 195318.512 549841.757 L 195319.976 549841.754 L 195321.468 549841.746 L 195321.474 549841.75 L 195321.479 549841.75 L 195330.049 549844.51 L 195330.328 549844.712 L 195330.671 549844.759 L 195333.601 549846.179 L 195334.187 549846.742 L 195334.909 549847.112 L 195339.568 549851.792 L 195339.784 549852.218 L 195340.16 549852.515 L 195345.13 549859.965 L 195345.211 549860.254 L 195345.424 549860.469 L 195348.134 549865.849 L 195348.21 549866.345 L 195348.482 549866.763 L 195355.82 549894.079 L 195363.465 549911.588 L 195363.476 549911.703 L 195363.548 549911.792 L 195370.128 549928.972 L 195370.138 549929.162 L 195370.247 549929.321 L 195376.065 549948.889 L 195397.991 549995.723 L 195398.09 549996.516 L 195398.417 549997.247 L 195398.269 549997.951 L 195398.358 549998.667 L 195397.971 549999.368 L 195397.806 550000.15 L 195395.496 550004.17 L 195394.444 550005.121 L 195393.331 550006.143 L 195322.462 550038.572 L 195321.836 550038.644 L 195321.28 550038.937 L 195320.4 550038.81 L 195319.515 550038.912 L 195318.967 550038.603 L 195318.344 550038.513 L 195310.444 550034.623 L 195310.344 550034.526 L 195310.206 550034.498 L 195309.283 550033.493 L 195308.318 550032.554 L 195308.294 550032.417 L 195308.199 550032.313 L 195306.553 550028.714 L 195306.105 550028.194 L 195302.444 550029.655 L 195301.791 550029.698 L 195301.196 550029.967 L 195300.348 550029.792 L 195299.484 550029.849 L 195298.933 550029.501 L 195298.291 550029.369 L 195297.706 550028.727 L 195296.975 550028.266 L 195296.733 550027.66 L 195296.292 550027.176 L 195295.482 550025.387 L 195289.653 550012.517 L 195272.19 550018.154 L 195271.382 550018.153 L 195270.609 550018.385 L 195269.937 550018.15 L 195269.223 550018.149 L 195268.569 550017.672 L 195267.808 550017.406 L 195267.402 550016.82 L 195266.826 550016.4 L 195266.578 550015.632 L 195266.118 550014.968 L 195263.358 550005.788 L 195263.371 550005.194 L 195263.161 550004.641 L 195263.403 550003.748 L 195263.424 550002.822 L 195263.783 550002.351 L 195263.938 550001.778 L 195264.661 550001.197 L 195265.22 550000.462 L 195265.787 550000.291 L 195266.11 550000.032 L 195265.719 549997.575 L 195263.117 549996.624 L 195262.306 549995.989 L 195261.385 549995.524 L 195256.988 549991.163 L 195247.868 549986.783 L 195247.031 549985.984 L 195246.087 549985.311 L 195239.957 549977.027 L 195237.096 549973.95 L 195235.826 549974.46 L 195235.039 549974.514 L 195235.307 549974.87 L 195235.321 549975.781 L 195235.56 549976.657 L 195235.344 549977.226 L 195235.354 549977.836 L 195234.831 549978.58 L 195234.509 549979.431 L 195226.659 549989.21 L 195226.369 549989.4 L 195226.202 549989.704 L 195221.092 549994.504 L 195220.007 549995.015 L 195218.997 549995.655 L 195218.689 549995.636 L 195218.408 549995.768 L 195217.231 549995.543 L 195216.037 549995.468 L 195215.798 549995.27 L 195215.494 549995.212 L 195214.675 549994.341 L 195213.752 549993.576 L 195205.542 549980.626 L 195205.531 549980.584 L 195205.499 549980.556 L 195197.499 549967.446 L 195197.384 549966.961 L 195197.078 549966.566 L 195189.659 549945.876 L 195189.648 549945.524 L 195189.473 549945.214 L 195189.604 549944.062 L 195189.569 549942.911 L 195189.768 549942.619 L 195189.808 549942.267 L 195191.438 549938.687 L 195191.959 549938.118 L 195192.282 549937.418 L 195192.892 549936.758 L 195192.937 549936.733 L 195192.961 549936.684 L 195194.249 549935.997 L 195195.48 549935.308 L 195195.532 549935.314 L 195195.579 549935.289 L 195212.735 549932.249 L 195214.189 549931.578 L 195214.609 549930.865 L 195214.962 549927.417 L 195215.221 549926.831 L 195215.254 549926.19 L 195218.794 549916.941 L 195218.967 549916.727 L 195219.012 549916.453 L 195220.262 549914.034 L 195219.788 549911.639 L 195219.848 549911.139 L 195219.697 549910.659 L 195219.797 549900.609 L 195220.213 549899.371 L 195220.527 549898.112 L 195221.027 549897.312 L 195221.325 549897.062 L 195221.477 549896.705 L 195227.397 549889.905 L 195227.491 549889.849 L 195227.538 549889.75 L 195236.242 549880.592 L 195242.297 549871.362 L 195244.945 549864.052 L 195245.199 549863.726 L 195245.281 549863.322 L 195247.251 549859.842 L 195247.534 549859.583 L 195247.668 549859.223 L 195248.938 549857.623 L 195249.552 549857.216 L 195250.003 549856.635 L 195251.683 549855.495 L 195252.151 549855.36 L 195252.519 549855.042 L 195254.209 549854.332 L 195254.768 549854.285 L 195255.268 549854.024 L 195258.998 549853.394 L 195259.354 549853.447 L 195259.691 549853.329 L 195264.224 549853.228 L 195265.175 549853.036 L 195265.861 549852.766 L 195267.497 549851.543 L 195268.34 549850.04 L 195269.133 549845.887 L 195269.697 549844.863 L 195270.115 549843.77 L 195270.4 549843.585 L 195270.563 549843.288 L 195271.618 549842.792 L 195272.601 549842.152 L 195272.941 549842.17 L 195273.248 549842.025 L 195274.397 549842.245 L 195275.564 549842.305 L 195275.678 549842.349 L 195276.429 549842.178 L 195277.261 549841.762 L 195277.838 549841.858 L 195278.412 549841.727 L 195278.458 549841.731 L 195278.908 549834.816 L 195279.226 549834.018 L 195279.318 549833.165 L 195279.761 549832.675 L 195280.006 549832.06 L 195280.733 549831.601 L 195281.308 549830.965 L 195281.955 549830.829 L 195282.514 549830.476 L 195283.37 549830.532 L 195284.211 549830.355 L 195286.071 549830.555 Z " fill="red" stroke="black" stroke-width="0.01"/><path fill-rule="evenodd" d="M 195299.85515485273 550023.4081629915 L 195293.03545272545 550008.3471758855 L 195291.06549009934 550007.0171549798 L 195270.71554891733 550013.5867734824 L 195267.9557191706 550004.4068038535 L 195271.45571227657 550003.0768710991 L 195270.01586959284 549994.0369215967 L 195264.7659430135 549992.1168526497 L 195259.79606266745 549987.1868127601 L 195249.94621858984 549982.4566925989 L 195243.65640645186 549973.9566605426 L 195238.36654093818 549968.2666216904 L 195234.03654794634 549970.0065377305 L 195231.1965784997 549969.5364957969 L 195227.87652706023 549974.3964026762 L 195230.76647096462 549976.4264326956 L 195222.91637691046 549986.2062264605 L 195217.80634092315 549991.0061049808 L 195209.5966160216 549978.0560782707 L 195201.59689199456 549964.9460562548 L 195194.1772853983 549944.2561053841 L 195195.80732988828 549940.6761608367 L 195196.41733558688 549940.016176047 L 195214.18724253983 549936.8664880685 L 195216.93724074855 549935.5965427356 L 195217.74724385756 549934.9965606804 L 195219.27727337202 549932.3966065273 L 195219.73734199163 549927.9066505489 L 195223.27746238155 549918.6567830064 L 195225.29750903338 549914.7468474337 L 195224.49758060093 549910.7068674788 L 195224.59774171616 549900.6569510249 L 195225.09775055942 549899.856965606 L 195231.01781221564 549893.0571164343 L 195240.01789197183 549883.5873386584 L 195246.6180006504 549873.5275270196 L 195249.4581039897 549865.6876366956 L 195251.4281441199 549862.2076968105 L 195252.69815962104 549860.6077303184 L 195254.3781643948 549859.4677666811 L 195256.0681621612 549858.757799703 L 195259.79814213098 549858.1278649392 L 195264.75810376866 549858.017945759 L 195266.53809516644 549857.6579773775 L 195268.21809220768 549856.9980098292 L 195271.1881039453 549854.7780757819 L 195272.9081394927 549851.7081285233 L 195273.84821115714 549846.7881837776 L 195277.68815640282 549848.2582336704 L 195277.97818225273 549846.5082526112 L 195282.92813495276 549846.9583287033 L 195283.69831932336 549835.1284375481 L 195285.5583010535 549835.3284658899 L 195285.37811625347 549846.8883687516 L 195290.6580495277 549848.3784416853 L 195291.95801645194 549849.7784512206 L 195300.197930768 549850.9585743761 L 195304.6280394509 549841.9887188852 L 195310.8179587542 549843.8888031394 L 195308.8179285335 549846.7687474345 L 195307.467885965 549850.0886986168 L 195316.007777392 549852.5388162577 L 195319.227763262 549851.7988741739 L 195320.0178121345 549848.3689148636 L 195320.00784524652 549846.3189314175 L 195328.5777314385 549849.0790470131 L 195331.50768485237 549850.4990826511 L 195336.16757174267 549855.1791195935 L 195341.13741149267 549862.6291389485 L 195343.84730287988 549868.0091387626 L 195351.27679708216 549895.6690330198 L 195359.0664465968 549913.5090131186 L 195365.646116531 549930.6889791004 L 195371.56574781376 549950.5989121915 L 195393.64480923247 549997.7588835548 L 195391.33476314388 550001.7788135542 L 195320.46481406037 550034.2074070713 L 195312.56494067278 550030.317311481 L 195310.63502429082 550026.097314784 L 195307.50510810938 550022.4672939396 L 195300.66511947283 550025.1971614566 L 195299.85515485273 550023.4081629915 Z " fill="orange" stroke="black" stroke-width="0.01"/><path d="M 195299.85515485273 550023.4081629915 L 195281.06932476346 550031.9139482806" stroke="purple" stroke-width="0.2"/><path d="M 195281.06932476346 550031.9139482806 L 195221.44892440172 550166.6145575569" stroke="purple" stroke-width="0.2"/><path d="M 195221.44892440172 550166.6145575569 L 195199.87991348127 550275.3760577731" stroke="purple" stroke-width="0.2"/><path d="M 195199.87991348127 550275.3760577731 L 195286.446022723 550411.3505597537" stroke="purple" stroke-width="0.2"/><path d="M 195286.446022723 550411.3505597537 L 195312.61276406623 550586.5349391224" stroke="purple" stroke-width="0.2"/><path d="M 195312.61276406623 550586.5349391224 L 195315.43853609756 550590.7405126671" stroke="purple" stroke-width="0.2"/><path d="M 195293.03545272545 550008.3471758855 L 195290.5836685526 550010.4167489943" stroke="purple" stroke-width="0.2"/><path d="M 195290.5836685526 550010.4167489943 L 195281.06932476346 550031.9139482806" stroke="purple" stroke-width="0.2"/><path d="M 195291.06549009934 550007.0171549798 L 195290.5836685526 550010.4167489943" stroke="purple" stroke-width="0.2"/><path d="M 195270.71554891733 550013.5867734824 L 195205.0212031491 550138.7809006271" stroke="purple" stroke-width="0.2"/><path d="M 195205.0212031491 550138.7809006271 L 195221.44892440172 550166.6145575569" stroke="purple" stroke-width="0.2"/><path d="M 195267.9557191706 550004.4068038535 L 195253.9127135355 549997.4874302702" stroke="purple" stroke-width="0.2"/><path d="M 195253.9127135355 549997.4874302702 L 195251.50810313196 549998.9312165048" stroke="purple" stroke-width="0.2"/><path d="M 195251.50810313196 549998.9312165048 L 195239.90825668338 550008.8526612396" stroke="purple" stroke-width="0.2"/><path d="M 195239.90825668338 550008.8526612396 L 195205.0212031491 550138.7809006271" stroke="purple" stroke-width="0.2"/><path d="M 195271.45571227657 550003.0768710991 L 195264.16593579738 549998.8558652643" stroke="purple" stroke-width="0.2"/><path d="M 195264.16593579738 549998.8558652643 L 195260.46971644822 549998.8789849702" stroke="purple" stroke-width="0.2"/><path d="M 195260.46971644822 549998.8789849702 L 195253.9127135355 549997.4874302702" stroke="purple" stroke-width="0.2"/><path d="M 195270.01586959284 549994.0369215967 L 195264.16593579738 549998.8558652643" stroke="purple" stroke-width="0.2"/><path d="M 195264.7659430135 549992.1168526497 L 195260.46971644822 549998.8789849702" stroke="purple" stroke-width="0.2"/><path d="M 195259.79606266745 549987.1868127601 L 195251.50810313196 549998.9312165048" stroke="purple" stroke-width="0.2"/><path d="M 195249.94621858984 549982.4566925989 L 195237.8299463623 549997.1155434996" stroke="purple" stroke-width="0.2"/><path d="M 195237.8299463623 549997.1155434996 L 195238.66042635473 550000.7716344907" stroke="purple" stroke-width="0.2"/><path d="M 195238.66042635473 550000.7716344907 L 195239.90825668338 550008.8526612396" stroke="purple" stroke-width="0.2"/><path d="M 195243.65640645186 549973.9566605426 L 195238.1961704709 549978.4909018368" stroke="purple" stroke-width="0.2"/><path d="M 195238.1961704709 549978.4909018368 L 195237.8299463623 549997.1155434996" stroke="purple" stroke-width="0.2"/><path d="M 195238.36654093818 549968.2666216904 L 195236.98847452214 549974.4328503989" stroke="purple" stroke-width="0.2"/><path d="M 195234.03654794634 549970.0065377305 L 195234.48943133742 549974.1438273853" stroke="purple" stroke-width="0.2"/><path d="M 195234.48943133742 549974.1438273853 L 195236.98847452214 549974.4328503989" stroke="purple" stroke-width="0.2"/><path d="M 195231.1965784997 549969.5364957969 L 195232.88437928722 549973.4874484956" stroke="purple" stroke-width="0.2"/><path d="M 195232.88437928722 549973.4874484956 L 195234.48943133742 549974.1438273853" stroke="purple" stroke-width="0.2"/><path d="M 195227.87652706023 549974.3964026762 L 195232.88437928722 549973.4874484956" stroke="purple" stroke-width="0.2"/><path d="M 195230.76647096462 549976.4264326956 L 195238.08348447154 549975.3876384567" stroke="purple" stroke-width="0.2"/><path d="M 195238.08348447154 549975.3876384567 L 195236.98847452214 549974.4328503989" stroke="purple" stroke-width="0.2"/><path d="M 195238.08348447154 549975.3876384567 L 195238.1961704709 549978.4909018368" stroke="purple" stroke-width="0.2"/><path d="M 195222.91637691046 549986.2062264605 L 195238.66042635473 550000.7716344907" stroke="purple" stroke-width="0.2"/><path d="M 195217.80634092315 549991.0061049808 L 195216.82151373406 549998.7909905682" stroke="purple" stroke-width="0.2"/><path d="M 195209.5966160216 549978.0560782707 L 195205.35077974616 549980.6970454836" stroke="purple" stroke-width="0.2"/><path d="M 195201.59689199456 549964.9460562548 L 195197.06275355179 549967.1145511989" stroke="purple" stroke-width="0.2"/><path d="M 195194.1772853983 549944.2561053841 L 195188.78526044422 549944.0323400997" stroke="purple" stroke-width="0.2"/><path d="M 195195.80732988828 549940.6761608367 L 194444.50071479223 549441.250317171" stroke="purple" stroke-width="0.2"/><path d="M 194444.50071479223 549441.250317171 L 194439.70198775636 549439.7235361343" stroke="purple" stroke-width="0.2"/><path d="M 195196.41733558688 549940.016176047 L 195167.4242830248 549886.9547265955" stroke="purple" stroke-width="0.2"/><path d="M 195167.4242830248 549886.9547265955 L 195138.78782113077 549875.5828092386" stroke="purple" stroke-width="0.2"/><path d="M 195138.78782113077 549875.5828092386 L 194815.05928027828 549628.2855077753" stroke="purple" stroke-width="0.2"/><path d="M 194815.05928027828 549628.2855077753 L 194444.50071479223 549441.250317171" stroke="purple" stroke-width="0.2"/><path d="M 195214.18724253983 549936.8664880685 L 195211.87540776865 549929.4981181052" stroke="purple" stroke-width="0.2"/><path d="M 195211.87540776865 549929.4981181052 L 195206.8629649097 549924.8403285571" stroke="purple" stroke-width="0.2"/><path d="M 195206.8629649097 549924.8403285571 L 195194.53395723255 549909.9128091783" stroke="purple" stroke-width="0.2"/><path d="M 195194.53395723255 549909.9128091783 L 195167.4242830248 549886.9547265955" stroke="purple" stroke-width="0.2"/><path d="M 195216.93724074855 549935.5965427356 L 195215.24994729372 549932.7500292512" stroke="purple" stroke-width="0.2"/><path d="M 195215.24994729372 549932.7500292512 L 195213.0932141132 549930.3677820438" stroke="purple" stroke-width="0.2"/><path d="M 195213.0932141132 549930.3677820438 L 195211.87540776865 549929.4981181052" stroke="purple" stroke-width="0.2"/><path d="M 195217.74724385756 549934.9965606804 L 195215.24994729372 549932.7500292512" stroke="purple" stroke-width="0.2"/><path d="M 195219.27727337202 549932.3966065273 L 195213.0932141132 549930.3677820438" stroke="purple" stroke-width="0.2"/><path d="M 195219.73734199163 549927.9066505489 L 195206.8629649097 549924.8403285571" stroke="purple" stroke-width="0.2"/><path d="M 195223.27746238155 549918.6567830064 L 195209.58168451244 549912.5209257253" stroke="purple" stroke-width="0.2"/><path d="M 195209.58168451244 549912.5209257253 L 195207.18863438067 549912.316967319" stroke="purple" stroke-width="0.2"/><path d="M 195207.18863438067 549912.316967319 L 195194.53395723255 549909.9128091783" stroke="purple" stroke-width="0.2"/><path d="M 195225.29750903338 549914.7468474337 L 195209.58168451244 549912.5209257253" stroke="purple" stroke-width="0.2"/><path d="M 195224.49758060093 549910.7068674788 L 195207.18863438067 549912.316967319" stroke="purple" stroke-width="0.2"/><path d="M 195224.59774171616 549900.6569510249 L 195138.78782113077 549875.5828092386" stroke="purple" stroke-width="0.2"/><path d="M 195225.09775055942 549899.856965606 L 194907.21530184918 549664.422985476" stroke="purple" stroke-width="0.2"/><path d="M 194907.21530184918 549664.422985476 L 194815.05928027828 549628.2855077753" stroke="purple" stroke-width="0.2"/><path d="M 195231.01781221564 549893.0571164343 L 195152.0472716445 549821.2163013065" stroke="purple" stroke-width="0.2"/><path d="M 195152.0472716445 549821.2163013065 L 195149.2266915966 549819.5562794475" stroke="purple" stroke-width="0.2"/><path d="M 195149.2266915966 549819.5562794475 L 194979.92371526934 549699.7758998559" stroke="purple" stroke-width="0.2"/><path d="M 194979.92371526934 549699.7758998559 L 194907.21530184918 549664.422985476" stroke="purple" stroke-width="0.2"/><path d="M 195240.01789197183 549883.5873386584 L 195194.28183514092 549847.3298474825" stroke="purple" stroke-width="0.2"/><path d="M 195194.28183514092 549847.3298474825 L 195152.0472716445 549821.2163013065" stroke="purple" stroke-width="0.2"/><path d="M 195246.6180006504 549873.5275270196 L 195194.28183514092 549847.3298474825" stroke="purple" stroke-width="0.2"/><path d="M 195249.4581039897 549865.6876366956 L 195149.2266915966 549819.5562794475" stroke="purple" stroke-width="0.2"/><path d="M 195251.4281441199 549862.2076968105 L 195046.9281799033 549724.3836764123" stroke="purple" stroke-width="0.2"/><path d="M 195046.9281799033 549724.3836764123 L 194979.92371526934 549699.7758998559" stroke="purple" stroke-width="0.2"/><path d="M 195252.69815962104 549860.6077303184 L 195185.05483546696 549787.709099824" stroke="purple" stroke-width="0.2"/><path d="M 195185.05483546696 549787.709099824 L 195046.9281799033 549724.3836764123" stroke="purple" stroke-width="0.2"/><path d="M 195254.3781643948 549859.4677666811 L 195232.31586571268 549818.7883767433" stroke="purple" stroke-width="0.2"/><path d="M 195232.31586571268 549818.7883767433 L 195185.05483546696 549787.709099824" stroke="purple" stroke-width="0.2"/><path d="M 195256.0681621612 549858.757799703 L 195248.20239176712 549831.6599384323" stroke="purple" stroke-width="0.2"/><path d="M 195248.20239176712 549831.6599384323 L 195232.31586571268 549818.7883767433" stroke="purple" stroke-width="0.2"/><path d="M 195259.79814213098 549858.1278649392 L 195258.25962597443 549841.935683698" stroke="purple" stroke-width="0.2"/><path d="M 195258.25962597443 549841.935683698 L 195248.20239176712 549831.6599384323" stroke="purple" stroke-width="0.2"/><path d="M 195264.75810376866 549858.017945759 L 195263.72073482923 549848.6978652342" stroke="purple" stroke-width="0.2"/><path d="M 195263.72073482923 549848.6978652342 L 195263.54275666206 549848.1816494724" stroke="purple" stroke-width="0.2"/><path d="M 195263.54275666206 549848.1816494724 L 195258.25962597443 549841.935683698" stroke="purple" stroke-width="0.2"/><path d="M 195266.53809516644 549857.6579773775 L 195264.23026114007 549849.8366851043" stroke="purple" stroke-width="0.2"/><path d="M 195264.23026114007 549849.8366851043 L 195263.72073482923 549848.6978652342" stroke="purple" stroke-width="0.2"/><path d="M 195268.21809220768 549856.9980098292 L 195264.23026114007 549849.8366851043" stroke="purple" stroke-width="0.2"/><path d="M 195271.1881039453 549854.7780757819 L 195263.96672852928 549848.446787804" stroke="purple" stroke-width="0.2"/><path d="M 195263.96672852928 549848.446787804 L 195263.54275666206 549848.1816494724" stroke="purple" stroke-width="0.2"/><path d="M 195272.9081394927 549851.7081285233 L 195263.96672852928 549848.446787804" stroke="purple" stroke-width="0.2"/><path d="M 195273.84821115714 549846.7881837776 L 195270.05799141526 549839.9832943266" stroke="purple" stroke-width="0.2"/><path d="M 195277.68815640282 549848.2582336704 L 195272.9722271314 549840.0306613618" stroke="purple" stroke-width="0.2"/><path d="M 195272.9722271314 549840.0306613618 L 195273.8328527782 549836.3241010747" stroke="purple" stroke-width="0.2"/><path d="M 195273.8328527782 549836.3241010747 L 195238.99513915763 549781.9822786659" stroke="purple" stroke-width="0.2"/><path d="M 195238.99513915763 549781.9822786659 L 195240.17588648052 549777.080429267" stroke="purple" stroke-width="0.2"/><path d="M 195277.97818225273 549846.5082526112 L 195272.9722271314 549840.0306613618" stroke="purple" stroke-width="0.2"/><path d="M 195282.92813495276 549846.9583287033 L 195273.8328527782 549836.3241010747" stroke="purple" stroke-width="0.2"/><path d="M 195283.69831932336 549835.1284375481 L 195238.99513915763 549781.9822786659" stroke="purple" stroke-width="0.2"/><path d="M 195285.5583010535 549835.3284658899 L 195290.62879347973 549830.8449320318" stroke="purple" stroke-width="0.2"/><path d="M 195285.37811625347 549846.8883687516 L 195295.08147268186 549839.6626660541" stroke="purple" stroke-width="0.2"/><path d="M 195295.08147268186 549839.6626660541 L 195298.15039043294 549826.9662460602" stroke="purple" stroke-width="0.2"/><path d="M 195298.15039043294 549826.9662460602 L 195302.82034369456 549823.5706867165" stroke="purple" stroke-width="0.2"/><path d="M 195290.6580495277 549848.3784416853 L 195295.4626959499 549840.5197944293" stroke="purple" stroke-width="0.2"/><path d="M 195295.4626959499 549840.5197944293 L 195295.08147268186 549839.6626660541" stroke="purple" stroke-width="0.2"/><path d="M 195291.95801645194 549849.7784512206 L 195295.7552783006 549842.526140267" stroke="purple" stroke-width="0.2"/><path d="M 195295.7552783006 549842.526140267 L 195295.4626959499 549840.5197944293" stroke="purple" stroke-width="0.2"/><path d="M 195300.197930768 549850.9585743761 L 195295.7552783006 549842.526140267" stroke="purple" stroke-width="0.2"/><path d="M 195304.6280394509 549841.9887188852 L 195298.15039043294 549826.9662460602" stroke="purple" stroke-width="0.2"/><path d="M 195310.8179587542 549843.8888031394 L 195316.463329095 549841.9363110809" stroke="purple" stroke-width="0.2"/><path d="M 195316.463329095 549841.9363110809 L 195302.82034369456 549823.5706867165" stroke="purple" stroke-width="0.2"/><path d="M 195316.463329095 549841.9363110809 L 195314.91471893038 549846.9236216646" stroke="purple" stroke-width="0.2"/><path d="M 195308.8179285335 549846.7687474345 L 195311.4084607093 549848.172589427" stroke="purple" stroke-width="0.2"/><path d="M 195311.4084607093 549848.172589427 L 195314.91471893038 549846.9236216646" stroke="purple" stroke-width="0.2"/><path d="M 195307.467885965 549850.0886986168 L 195311.4084607093 549848.172589427" stroke="purple" stroke-width="0.2"/><path d="M 195316.007777392 549852.5388162577 L 195316.11105415685 549848.6805632974" stroke="purple" stroke-width="0.2"/><path d="M 195316.11105415685 549848.6805632974 L 195315.6405172641 549847.8820774015" stroke="purple" stroke-width="0.2"/><path d="M 195315.6405172641 549847.8820774015 L 195314.91471893038 549846.9236216646" stroke="purple" stroke-width="0.2"/><path d="M 195319.227763262 549851.7988741739 L 195316.11105415685 549848.6805632974" stroke="purple" stroke-width="0.2"/><path d="M 195320.0178121345 549848.3689148636 L 195315.6405172641 549847.8820774015" stroke="purple" stroke-width="0.2"/><path d="M 195320.00784524652 549846.3189314175 L 195302.82419858826 549822.8517580212" stroke="purple" stroke-width="0.2"/><path d="M 195302.82419858826 549822.8517580212 L 195302.82034369456 549823.5706867165" stroke="purple" stroke-width="0.2"/><path d="M 195302.82419858826 549822.8517580212 L 195353.72913572134 549786.3706137523" stroke="purple" stroke-width="0.2"/><path d="M 195353.72913572134 549786.3706137523 L 195395.63469997488 549760.5652708022" stroke="purple" stroke-width="0.2"/><path d="M 195395.63469997488 549760.5652708022 L 195506.53298052112 549715.778154929" stroke="purple" stroke-width="0.2"/><path d="M 195506.53298052112 549715.778154929 L 195681.8824287583 549664.1469090151" stroke="purple" stroke-width="0.2"/><path d="M 195681.8824287583 549664.1469090151 L 196174.0679965579 549551.2347819345" stroke="purple" stroke-width="0.2"/><path d="M 196174.0679965579 549551.2347819345 L 196480.23703928525 549513.2571109383" stroke="purple" stroke-width="0.2"/><path d="M 196480.23703928525 549513.2571109383 L 196485.2544088118 549512.1817200517" stroke="purple" stroke-width="0.2"/><path d="M 195328.5777314385 549849.0790470131 L 195353.72913572134 549786.3706137523" stroke="purple" stroke-width="0.2"/><path d="M 195331.50768485237 549850.4990826511 L 195395.63469997488 549760.5652708022" stroke="purple" stroke-width="0.2"/><path d="M 195336.16757174267 549855.1791195935 L 195506.53298052112 549715.778154929" stroke="purple" stroke-width="0.2"/><path d="M 195341.13741149267 549862.6291389485 L 195681.8824287583 549664.1469090151" stroke="purple" stroke-width="0.2"/><path d="M 195343.84730287988 549868.0091387626 L 196174.0679965579 549551.2347819345" stroke="purple" stroke-width="0.2"/><path d="M 195351.27679708216 549895.6690330198 L 195706.87342423803 549771.061140834" stroke="purple" stroke-width="0.2"/><path d="M 195706.87342423803 549771.061140834 L 196316.90785877628 549572.9020988006" stroke="purple" stroke-width="0.2"/><path d="M 196316.90785877628 549572.9020988006 L 196480.23703928525 549513.2571109383" stroke="purple" stroke-width="0.2"/><path d="M 195359.0664465968 549913.5090131186 L 195706.87342423803 549771.061140834" stroke="purple" stroke-width="0.2"/><path d="M 195365.646116531 549930.6889791004 L 195909.74829577183 549745.9149998643" stroke="purple" stroke-width="0.2"/><path d="M 195909.74829577183 549745.9149998643 L 196316.90785877628 549572.9020988006" stroke="purple" stroke-width="0.2"/><path d="M 195371.56574781376 549950.5989121915 L 195909.74829577183 549745.9149998643" stroke="purple" stroke-width="0.2"/><path d="M 195393.64480923247 549997.7588835548 L 195399.27605423797 549997.9947055615" stroke="purple" stroke-width="0.2"/><path d="M 195391.33476314388 550001.7788135542 L 195394.8718297811 550005.6589136939" stroke="purple" stroke-width="0.2"/><path d="M 195320.46481406037 550034.2074070713 L 195312.61276406623 550586.5349391224" stroke="purple" stroke-width="0.2"/><path d="M 195312.56494067278 550030.317311481 L 195300.838776488 550041.7123643429" stroke="purple" stroke-width="0.2"/><path d="M 195300.838776488 550041.7123643429 L 195286.446022723 550411.3505597537" stroke="purple" stroke-width="0.2"/><path d="M 195310.63502429082 550026.097314784 L 195305.8708276399 550029.1526349806" stroke="purple" stroke-width="0.2"/><path d="M 195305.8708276399 550029.1526349806 L 195300.838776488 550041.7123643429" stroke="purple" stroke-width="0.2"/><path d="M 195307.50510810938 550022.4672939396 L 195305.8708276399 550029.1526349806" stroke="purple" stroke-width="0.2"/><path d="M 195300.66511947283 550025.1971614566 L 195199.87991348127 550275.3760577731" stroke="purple" stroke-width="0.2"/></svg>