<svg xmlns="http://www.w3.org/2000/svg" preserveAspectRatio="xMidYMid meet" viewBox="-0.90999997 -0.90999997 6.82 6.82"><path fill-rule="evenodd" d="M 0.0 0.0 L 2.0 0.0 L 2.0 2.0 L 0.0 2.0 L 0.0 0.0 Z " fill="orange" stroke="black" stroke-width="0.01"/><path fill-rule="evenodd" d="M 3.0 3.0 L 5.0 3.0 L 5.0 5.0 L 3.0 5.0 L 3.0 3.0 Z " fill="orange" stroke="black" stroke-width="0.01"/><path fill-rule="evenodd" d="M -0.9 -0.9 L 2.9 -0.9 L 2.9 2.9 L -0.9 2.9 L -0.9 -0.9 Z " fill="orange" stroke="black" stroke-width="0.01"/><path fill-rule="evenodd" d="M 2.1 2.1 L 5.9 2.1 L 5.9 5.9 L 2.1 5.9 L 2.1 2.1 Z " fill="orange" stroke="black" stroke-width="0.01"/><path fill-rule="evenodd" d="M 0.0 0.0 L 2.0 0.0 L 2.0 2.0 L 0.0 2.0 L 0.0 0.0 Z " fill="red" stroke="black" stroke-width="0.01"/><path fill-rule="evenodd" d="M 3.0 3.0 L 5.0 3.0 L 5.0 5.0 L 3.0 5.0 L 3.0 3.0 Z " fill="red" stroke="black" stroke-width="0.01"/></svg>