<svg xmlns="http://www.w3.org/2000/svg" preserveAspectRatio="xMidYMid meet" viewBox="-0.21000001 -0.21000001 1.4200001 1.4200001"><path fill-rule="evenodd" d="M -0.2 0.0 L -0.19900083305560518 -0.01996668332936563 L -0.19601331556824836 -0.039733866159012254 L -0.19106729782512125 -0.059104041332267925 L -0.18421219880057707 -0.07788366846173012 L -0.17551651237807464 -0.09588510772084063 L -0.16506712298193574 -0.11292849467900712 L -0.15296843745689778 -0.1288435374475383 L -0.13934134186943317 -0.14347121817990466 L -0.12432199365413298 -0.1566653819254968 L -0.10806046117362803 -0.16829419696157943 L -0.09071922428511556 -0.17824147201228724 L -0.07247155089533479 -0.18640781719344546 L -0.053499765724917527 -0.19271163708343877 L -0.033993428580048224 -0.19708994599769225 L -0.014147440333540602 -0.1994989973208111 L 0.0 -0.2 L 1.0 -0.2 L 1.0199666833293657 -0.19900083305560518 L 1.0397338661590123 -0.19601331556824836 L 1.0591040413322679 -0.19106729782512125 L 1.0778836684617301 -0.18421219880057707 L 1.0958851077208407 -0.17551651237807464 L 1.1129284946790072 -0.16506712298193574 L 1.1288435374475383 -0.15296843745689778 L 1.1434712181799047 -0.13934134186943317 L 1.1566653819254968 -0.12432199365413298 L 1.1682941969615794 -0.10806046117362803 L 1.1782414720122873 -0.09071922428511556 L 1.1864078171934453 -0.07247155089533479 L 1.1927116370834387 -0.053499765724917527 L 1.1970899459976923 -0.033993428580048224 L 1.199498997320811 -0.014147440333540602 L 1.2 0.0 L 1.2 1.0 L 1.1990008330556052 1.0199666833293657 L 1.1960133155682484 1.0397338661590123 L 1.1910672978251213 1.0591040413322679 L 1.1842121988005772 1.0778836684617301 L 1.1755165123780746 1.0958851077208407 L 1.1650671229819358 1.1129284946790072 L 1.1529684374568978 1.1288435374475383 L 1.1393413418694331 1.1434712181799047 L 1.1243219936541329 1.1566653819254968 L 1.108060461173628 1.1682941969615794 L 1.0907192242851156 1.1782414720122873 L 1.0724715508953349 1.1864078171934453 L 1.0534997657249174 1.1927116370834387 L 1.0339934285800483 1.1970899459976923 L 1.0141474403335407 1.199498997320811 L 1.0 1.2 L 0.0 1.2 L -0.01996668332936563 1.1990008330556052 L -0.039733866159012254 1.1960133155682484 L -0.059104041332267925 1.1910672978251213 L -0.07788366846173012 1.1842121988005772 L -0.09588510772084063 1.1755165123780746 L -0.11292849467900712 1.1650671229819358 L -0.1288435374475383 1.1529684374568978 L -0.14347121817990466 1.1393413418694331 L -0.1566653819254968 1.1243219936541329 L -0.16829419696157943 1.108060461173628 L -0.17824147201228724 1.0907192242851156 L -0.18640781719344546 1.0724715508953349 L -0.19271163708343877 1.0534997657249174 L -0.19708994599769225 1.0339934285800483 L -0.1994989973208111 1.0141474403335407 L -0.2 1.0 L -0.2 0.0 Z " fill="orange" stroke="black" stroke-width="0.01"/><path fill-rule="evenodd" d="M 0.0 0.0 L 1.0 0.0 L 1.0 1.0 L 0.0 1.0 L 0.0 0.0 Z " fill="red" stroke="black" stroke-width="0.01"/></svg>