<svg xmlns="http://www.w3.org/2000/svg" preserveAspectRatio="xMidYMid meet" viewBox="-1.01 -1.01 7.0200005 7.0200005"><path fill-rule="evenodd" d="M -1.0 0.0 L -0.9950041652780258 -0.09983341664682815 L -0.9800665778412417 -0.19866933079506124 L -0.9553364891256062 -0.2955202066613396 L -0.9210609940028853 -0.3894183423086506 L -0.8775825618903731 -0.47942553860420317 L -0.8253356149096787 -0.5646424733950356 L -0.7648421872844888 -0.6442176872376915 L -0.6967067093471658 -0.7173560908995232 L -0.6216099682706648 -0.783326909627484 L -0.5403023058681401 -0.8414709848078972 L -0.45359612142557776 -0.8912073600614361 L -0.3623577544766739 -0.9320390859672272 L -0.2674988286245876 -0.9635581854171938 L -0.16996714290024112 -0.9854497299884611 L -0.070737201667703 -0.9974949866040554 L 0.0 -1.0 L 2.0 -1.0 L 2.099833416646828 -0.9950041652780258 L 2.1986693307950613 -0.9800665778412417 L 2.2955202066613394 -0.9553364891256062 L 2.389418342308651 -0.9210609940028853 L 2.479425538604203 -0.8775825618903731 L 2.5646424733950357 -0.8253356149096787 L 2.6442176872376915 -0.7648421872844888 L 2.717356090899523 -0.6967067093471658 L 2.783326909627484 -0.6216099682706648 L 2.841470984807897 -0.5403023058681401 L 2.8912073600614363 -0.45359612142557776 L 2.932039085967227 -0.3623577544766739 L 2.963558185417194 -0.2674988286245876 L 2.9854497299884613 -0.16996714290024112 L 2.9974949866040554 -0.070737201667703 L 3.0 0.0 L 3.0 2.0 L 5.0 2.0 L 5.099833416646828 2.0049958347219743 L 5.198669330795061 2.019933422158758 L 5.295520206661339 2.044663510874394 L 5.389418342308651 2.078939005997115 L 5.479425538604203 2.122417438109627 L 5.564642473395035 2.1746643850903213 L 5.644217687237692 2.235157812715511 L 5.717356090899523 2.3032932906528343 L 5.783326909627484 2.378390031729335 L 5.841470984807897 2.45969769413186 L 5.891207360061436 2.5464038785744223 L 5.932039085967228 2.637642245523326 L 5.9635581854171935 2.7325011713754126 L 5.985449729988461 2.830032857099759 L 5.997494986604055 2.929262798332297 L 6.0 3.0 L 6.0 5.0 L 5.995004165278026 5.099833416646828 L 5.980066577841241 5.198669330795061 L 5.955336489125607 5.295520206661339 L 5.921060994002885 5.389418342308651 L 5.877582561890373 5.479425538604203 L 5.825335614909679 5.564642473395035 L 5.764842187284489 5.644217687237692 L 5.696706709347166 5.717356090899523 L 5.621609968270665 5.783326909627484 L 5.54030230586814 5.841470984807897 L 5.453596121425578 5.891207360061436 L 5.362357754476674 5.932039085967228 L 5.267498828624587 5.9635581854171935 L 5.169967142900241 5.985449729988461 L 5.070737201667703 5.997494986604055 L 5.0 6.0 L 3.0 6.0 L 2.900166583353172 5.995004165278026 L 2.8013306692049387 5.980066577841241 L 2.7044797933386606 5.955336489125607 L 2.610581657691349 5.921060994002885 L 2.520574461395797 5.877582561890373 L 2.4353575266049643 5.825335614909679 L 2.3557823127623085 5.764842187284489 L 2.282643909100477 5.696706709347166 L 2.216673090372516 5.621609968270665 L 2.158529015192103 5.54030230586814 L 2.1087926399385637 5.453596121425578 L 2.067960914032773 5.362357754476674 L 2.036441814582806 5.267498828624587 L 2.0145502700115387 5.169967142900241 L 2.0025050133959446 5.070737201667703 L 2.0 5.0 L 2.0 3.0 L 0.0 3.0 L -0.09983341664682815 2.9950041652780257 L -0.19866933079506124 2.980066577841242 L -0.2955202066613396 2.955336489125606 L -0.3894183423086506 2.921060994002885 L -0.47942553860420317 2.877582561890373 L -0.5646424733950356 2.8253356149096787 L -0.6442176872376915 2.764842187284489 L -0.7173560908995232 2.6967067093471657 L -0.783326909627484 2.621609968270665 L -0.8414709848078972 2.54030230586814 L -0.8912073600614361 2.4535961214255777 L -0.9320390859672272 2.362357754476674 L -0.9635581854171938 2.2674988286245874 L -0.9854497299884611 2.169967142900241 L -0.9974949866040554 2.070737201667703 L -1.0 2.0 L -1.0 0.0 Z " fill="orange" stroke="black" stroke-width="0.01"/><path fill-rule="evenodd" d="M 0.0 0.0 L 2.0 0.0 L 2.0 2.0 L 0.0 2.0 L 0.0 0.0 Z " fill="red" stroke="black" stroke-width="0.01"/><path fill-rule="evenodd" d="M 3.0 3.0 L 5.0 3.0 L 5.0 5.0 L 3.0 5.0 L 3.0 3.0 Z " fill="red" stroke="black" stroke-width="0.01"/></svg>