<svg xmlns="http://www.w3.org/2000/svg" preserveAspectRatio="xMidYMid meet" viewBox="-5.01 -5.01 15.02 15.02"><path fill-rule="evenodd" d="M 0.0 0.0 L 2.0 0.0 L 2.0 2.0 L 0.0 2.0 L 0.0 0.0 Z " fill="red" stroke="black" stroke-width="0.01"/><path fill-rule="evenodd" d="M 3.0 3.0 L 5.0 3.0 L 5.0 5.0 L 3.0 5.0 L 3.0 3.0 Z " fill="red" stroke="black" stroke-width="0.01"/><path d="M 0.0 0.0 L -5.0 -5.0" stroke="purple" stroke-width="0.01"/><path d="M 2.0 0.0 L 7.0 -5.0" stroke="purple" stroke-width="0.01"/><path d="M 2.0 2.0 L 2.5 2.5" stroke="purple" stroke-width="0.01"/><path d="M 2.5 2.5 L 2.5 2.5" stroke="purple" stroke-width="0.01"/><path d="M 2.5 2.5 L 7.5 -2.5" stroke="purple" stroke-width="0.01"/><path d="M 2.5 2.5 L -2.5 7.5" stroke="purple" stroke-width="0.01"/><path d="M 0.0 2.0 L -5.0 7.0" stroke="purple" stroke-width="0.01"/><path d="M 3.0 3.0 L 2.5 2.5" stroke="purple" stroke-width="0.01"/><path d="M 5.0 3.0 L 10.0 -2.0" stroke="purple" stroke-width="0.01"/><path d="M 5.0 5.0 L 10.0 10.0" stroke="purple" stroke-width="0.01"/><path d="M 3.0 5.0 L -2.0 10.0" stroke="purple" stroke-width="0.01"/></svg>